<?xml version="1.0" encoding="UTF-8" standalone="no"?>
<svg
   xmlns:dc="http://purl.org/dc/elements/1.1/"
   xmlns:cc="http://creativecommons.org/ns#"
   xmlns:rdf="http://www.w3.org/1999/02/22-rdf-syntax-ns#"
   xmlns:svg="http://www.w3.org/2000/svg"
   xmlns="http://www.w3.org/2000/svg"
   xmlns:sodipodi="http://sodipodi.sourceforge.net/DTD/sodipodi-0.dtd"
   xmlns:inkscape="http://www.inkscape.org/namespaces/inkscape"
   version="1.1"
   id="svg2"
   xml:space="preserve"
   width="793.70135"
   height="1122.52"
   viewBox="0 0 793.70135 1122.52"
   sodipodi:docname="home-main.ai"><metadata
     id="metadata8"><rdf:RDF><cc:Work
         rdf:about=""><dc:format>image/svg+xml</dc:format><dc:type
           rdf:resource="http://purl.org/dc/dcmitype/StillImage" /></cc:Work></rdf:RDF></metadata><defs
     id="defs6"><clipPath
       clipPathUnits="userSpaceOnUse"
       id="clipPath18"><path
         d="M 0,841.89 H 595.276 V 0 H 0 Z"
         id="path16" /></clipPath><clipPath
       clipPathUnits="userSpaceOnUse"
       id="clipPath42"><path
         d="M 0,841.89 H 595.276 V 0 H 0 Z"
         id="path40" /></clipPath><clipPath
       clipPathUnits="userSpaceOnUse"
       id="clipPath62"><path
         d="M 0,841.89 H 595.276 V 0 H 0 Z"
         id="path60" /></clipPath></defs><sodipodi:namedview
     pagecolor="#ffffff"
     bordercolor="#666666"
     borderopacity="1"
     objecttolerance="10"
     gridtolerance="10"
     guidetolerance="10"
     inkscape:pageopacity="0"
     inkscape:pageshadow="2"
     inkscape:window-width="640"
     inkscape:window-height="480"
     id="namedview4" /><g
     id="g10"
     inkscape:groupmode="layer"
     inkscape:label="home-main"
     transform="matrix(1.3333333,0,0,-1.3333333,0,1122.52)"><g
       id="g12"><g
         id="g14"
         clip-path="url(#clipPath18)"><g
           id="g20"
           transform="translate(97.1133,508.4381)"><path
             d="m 0,0 c 0,-111.286 92.677,-201.5 207,-201.5 114.323,0 207,90.214 207,201.5 0,111.285 -92.677,201.5 -207,201.5 C 92.677,201.5 0,111.285 0,0"
             style="fill:#730f39;fill-opacity:1;fill-rule:nonzero;stroke:none"
             id="path22" /></g><g
           id="g24"
           transform="translate(97.1133,508.4381)"><path
             d="m 0,0 c 0,-111.286 92.677,-201.5 207,-201.5 114.323,0 207,90.214 207,201.5 0,111.285 -92.677,201.5 -207,201.5 C 92.677,201.5 0,111.285 0,0 Z"
             style="fill:none;stroke:#fff687;stroke-width:1;stroke-linecap:butt;stroke-linejoin:miter;stroke-miterlimit:10;stroke-dasharray:none;stroke-opacity:1"
             id="path26" /></g></g></g><text
       transform="matrix(1,0,0,-0.91467084,259.3203,603.7012)"
       style="font-variant:normal;font-weight:normal;font-stretch:normal;font-size:47.9543px;font-family:'Myriad Pro';-inkscape-font-specification:MyriadPro-Regular;writing-mode:lr-tb;fill:#fff687;fill-opacity:1;fill-rule:nonzero;stroke:none"
       id="text30"><tspan
         x="0 28.580763 45.029087"
         y="0"
         sodipodi:role="line"
         id="tspan28">&lt;/&gt;</tspan></text><text
       transform="matrix(0.35443942,0,0,-1,200.2407,643.2349)"
       style="font-variant:normal;font-weight:normal;font-stretch:normal;font-size:46.0578px;font-family:'Myriad Pro';-inkscape-font-specification:MyriadPro-Regular;writing-mode:lr-tb;fill:#fff687;fill-opacity:1;fill-rule:nonzero;stroke:none"
       id="text34"><tspan
         x="0 27.450449 53.657337 81.107788 97.412247 108.88525 147.29745 169.49731 194.96727 205.7448 231.30688 254.38184 264.14609 279.39124 304.95331 326.96893 342.21405 361.74255 400.15479 422.35464 447.82458 458.60211 478.77545 483.10486 499.40933 526.8598 542.65759 568.8645 596.31494"
         y="0"
         sodipodi:role="line"
         id="tspan32">&lt;p&gt;“Imagine that magic.”&lt;/p&gt; </tspan></text><g
       id="g36"><g
         id="g38"
         clip-path="url(#clipPath42)"><g
           id="g44"
           transform="translate(131.4702,426.1915)"><path
             d="M 0,0 C 11.711,14.243 28.708,18.423 34.479,19.762 62.453,26.254 89.51,15.78 89.24,12.532 89.144,11.378 85.66,11.875 80.62,8.676 78.673,7.441 70.908,2.512 70.479,-5.784 c -0.269,-5.2 2.941,-9.766 9.127,-15.424 12.777,-11.688 27.129,-18.021 39.042,-22.172 19.481,-6.788 34.87,-8.59 48.676,-10.122 13.2,-1.465 24.197,-1.705 36.508,0.481 9.682,1.721 20.668,3.802 23.323,10.605 3.1,7.946 -8,15.067 -5.071,19.762 3.858,6.181 27.66,1.136 45.127,-8.194 14.926,-7.972 22.104,-17.406 23.831,-19.762 5.301,-7.232 12.53,-17.431 8.643,-26.99 -2.876,-7.074 -10.816,-10.142 -24.93,-19.033 -4,-2.519 -13.568,-8.032 -31.267,-14.526 -8.05,-2.954 -21.718,-7.674 -40.733,-10.458 -11.722,-1.716 -26.926,-2.853 -46.183,-1.487 -4.562,0.323 -24.922,1.176 -49.775,9.844 -17.358,6.055 -29.848,13.076 -38.323,17.94 C 50.97,-85.278 39.495,-74.608 36.318,-71.999 25.71,-63.285 19.801,-56.368 7.606,-42.898 -5.353,-28.585 -8.216,-23.527 -8.113,-17.352 -7.985,-9.711 -3.38,-4.111 0,0"
             style="fill:#fff687;fill-opacity:1;fill-rule:nonzero;stroke:none"
             id="path46" /></g><g
           id="g48"
           transform="translate(289.7944,359.421)"><path
             d="m 0,0 c -1.014,0.685 -3.828,-0.607 -3.803,-2.281 0.014,-0.948 0.938,-1.964 1.944,-2.029 1.361,-0.087 2.379,1.601 2.366,2.915 C 0.504,-1.104 0.497,-0.335 0,0"
             style="fill:#eccae1;fill-opacity:1;fill-rule:nonzero;stroke:none"
             id="path50" /></g><g
           id="g52"
           transform="translate(262.0396,389.4698)"><path
             d="m 0,0 c -0.809,-0.082 -1.705,-6.148 -0.178,-7.906 0.258,-0.296 0.734,-0.286 2.094,-0.615 1.352,-0.328 2.937,-0.717 4.292,-1.028 1.801,-0.414 3.23,-0.759 5.249,-1.11 2.606,-0.455 5.137,-1.03 5.165,-0.945 0.039,0.125 -3.858,1.897 -5.291,2.528 C 8.556,-7.854 8.184,-7.568 6.845,-6.88 5.957,-6.423 4.913,-5.729 3.695,-4.585 2.091,-3.08 0.946,-1.421 0.946,-1.42 0.295,-0.354 0.22,0.022 0,0"
             style="fill:#002e2b;fill-opacity:1;fill-rule:nonzero;stroke:none"
             id="path54" /></g></g></g><g
       id="g56"><g
         id="g58"
         clip-path="url(#clipPath62)"><g
           id="g64"
           transform="translate(314.3174,516.9855)"><path
             d="m 0,0 c -4.812,-3.925 -9.975,-7.752 -15.907,-9 -3.993,-0.841 -8.094,-0.456 -12.128,-0.068 -7.156,0.689 -14.9,1.651 -19.998,6.911 -3.664,3.782 -5.379,9.555 -4.437,14.94 0.584,3.34 2.118,6.702 1.349,9.973 -0.709,3.015 -3.266,5.273 -3.779,8.335 -0.7,4.18 2.529,7.856 4.792,11.427 3.045,4.807 7.886,11.078 7.66,16.801 -0.155,3.913 7.886,5.393 11.573,4.97 12.041,-1.382 11.373,-1.94 23.413,-3.322 1.305,-0.15 3.042,-2.915 3.042,-2.915 0.657,-0.902 0.898,-5.191 0.888,-6.339 -0.084,-9.083 6.307,-13.678 6.224,-22.761 -0.029,-3.148 0.407,-7.047 3.201,-8.098 3.294,-1.238 6.167,2.595 8.545,5.375 2.831,3.308 6.943,5.781 11.086,5.242 5.617,-0.732 9.497,-7.396 8.201,-13.245 C 32.429,12.377 26.734,8.132 21.063,8.112 19.604,8.107 18.099,8.333 16.717,7.81 13.873,6.733 12.823,3.112 12.299,-0.018 10.533,-10.564 9.08,-23.145 0.092,-28.231 c -5.746,-3.252 -12.672,-2.117 -19.015,-0.895 -1.855,0.357 -3.852,0.797 -5.084,2.287 -1.191,1.44 -1.371,3.506 -1.496,5.428 -0.298,4.569 -0.733,7.634 -1.031,12.202"
             style="fill:#5a1c0b;fill-opacity:1;fill-rule:nonzero;stroke:none"
             id="path66" /></g><g
           id="g68"
           transform="translate(280.9375,553.048)"><path
             d="m 0,0 c -3.027,-3.424 -8.952,-0.784 -10.997,-5.247 -0.93,-2.031 -0.447,-4.759 0.743,-6.553 1.19,-1.794 2.942,-2.809 4.696,-3.508"
             style="fill:#5a1c0b;fill-opacity:1;fill-rule:nonzero;stroke:#231f20;stroke-width:1;stroke-linecap:butt;stroke-linejoin:miter;stroke-miterlimit:10;stroke-dasharray:none;stroke-opacity:1"
             id="path70" /></g><g
           id="g72"
           transform="translate(269.8223,533.3883)"><path
             d="m 0,0 c 3.886,1.453 8.491,0.795 11.815,-1.687 0.647,-0.482 1.245,-1.027 1.878,-1.528 1.221,-0.965 3.769,-1.767 5.214,-2.347 -1.845,0.161 -4.887,0.369 -6.678,0.837 -2.084,0.545 -4.072,1.439 -6.181,1.878 -2.11,0.439 -4.463,0.363 -6.216,-0.889 C -0.9,-2.649 -1.559,-0.583 0,0"
             style="fill:#491405;fill-opacity:1;fill-rule:nonzero;stroke:none"
             id="path74" /></g><g
           id="g76"
           transform="translate(269.8223,533.3883)"><path
             d="m 0,0 c 3.886,1.453 8.491,0.795 11.815,-1.687 0.647,-0.482 1.245,-1.027 1.878,-1.528 1.221,-0.965 3.769,-1.767 5.214,-2.347 -1.845,0.161 -4.887,0.369 -6.678,0.837 -2.084,0.545 -4.072,1.439 -6.181,1.878 -2.11,0.439 -4.463,0.363 -6.216,-0.889 C -0.9,-2.649 -1.559,-0.583 0,0 Z"
             style="fill:none;stroke:#491405;stroke-width:0.25;stroke-linecap:butt;stroke-linejoin:miter;stroke-miterlimit:10;stroke-dasharray:none;stroke-opacity:1"
             id="path78" /></g><g
           id="g80"
           transform="translate(288.8018,553.6549)"><path
             d="m 0,0 c 0,-2.624 3.359,-4.75 7.502,-4.75 4.144,0 7.503,2.126 7.503,4.75 0,2.623 -3.359,4.75 -7.503,4.75 C 3.359,4.75 0,2.623 0,0"
             style="fill:#ffffff;fill-opacity:1;fill-rule:nonzero;stroke:none"
             id="path82" /></g><g
           id="g84"
           transform="translate(296.0269,553.4879)"><path
             d="m 0,0 c 0,-1.681 -1.362,-3.042 -3.042,-3.042 -1.68,0 -3.042,1.361 -3.042,3.042 0,1.68 1.362,3.042 3.042,3.042 C -1.362,3.042 0,1.68 0,0"
             style="fill:#1a0d0c;fill-opacity:1;fill-rule:nonzero;stroke:none"
             id="path86" /></g><g
           id="g88"
           transform="translate(296.0269,553.4879)"><path
             d="m 0,0 c 0,-1.681 -1.362,-3.042 -3.042,-3.042 -1.68,0 -3.042,1.361 -3.042,3.042 0,1.68 1.362,3.042 3.042,3.042 C -1.362,3.042 0,1.68 0,0 Z"
             style="fill:none;stroke:#423652;stroke-width:1;stroke-linecap:butt;stroke-linejoin:miter;stroke-miterlimit:10;stroke-dasharray:none;stroke-opacity:1"
             id="path90" /></g><g
           id="g92"
           transform="translate(265.1748,559.7667)"><path
             d="m 0,0 c -0.984,-2.241 0.931,-5.249 4.278,-6.719 3.347,-1.469 6.857,-0.845 7.841,1.395 0.985,2.241 -0.931,5.249 -4.277,6.719 C 4.495,2.865 0.984,2.24 0,0"
             style="fill:#ffffff;fill-opacity:1;fill-rule:nonzero;stroke:none"
             id="path94" /></g><g
           id="g96"
           transform="translate(271.4932,557.0182)"><path
             d="M 0,0 C -0.766,-1.496 -2.599,-2.087 -4.095,-1.321 -5.59,-0.556 -6.182,1.277 -5.416,2.773 -4.65,4.269 -2.817,4.86 -1.321,4.094 0.174,3.329 0.766,1.496 0,0"
             style="fill:#1a0d0c;fill-opacity:1;fill-rule:nonzero;stroke:none"
             id="path98" /></g><g
           id="g100"
           transform="translate(271.4932,557.0182)"><path
             d="M 0,0 C -0.766,-1.496 -2.599,-2.087 -4.095,-1.321 -5.59,-0.556 -6.182,1.277 -5.416,2.773 -4.65,4.269 -2.817,4.86 -1.321,4.094 0.174,3.329 0.766,1.496 0,0 Z"
             style="fill:none;stroke:#423652;stroke-width:1;stroke-linecap:butt;stroke-linejoin:miter;stroke-miterlimit:10;stroke-dasharray:none;stroke-opacity:1"
             id="path102" /></g><g
           id="g104"
           transform="translate(269.8535,526.631)"><path
             d="m 0,0 c 0.388,-0.583 0.989,-0.993 1.621,-1.295 1.833,-0.877 3.938,-0.928 5.97,-0.962 1.945,-0.033 3.965,-0.05 5.733,0.759 1.646,0.752 3.383,2.057 5.076,2.694 C 12.705,1.402 6.91,4.593 1.212,4.462 -1.131,4.408 -1.053,1.581 0,0"
             style="fill:#491405;fill-opacity:1;fill-rule:nonzero;stroke:none"
             id="path106" /></g><g
           id="g108"
           transform="translate(269.8535,526.631)"><path
             d="m 0,0 c 0.388,-0.583 0.989,-0.993 1.621,-1.295 1.833,-0.877 3.938,-0.928 5.97,-0.962 1.945,-0.033 3.965,-0.05 5.733,0.759 1.646,0.752 3.383,2.057 5.076,2.694 C 12.705,1.402 6.91,4.593 1.212,4.462 -1.131,4.408 -1.053,1.581 0,0 Z"
             style="fill:none;stroke:#491405;stroke-width:0.25;stroke-linecap:butt;stroke-linejoin:miter;stroke-miterlimit:10;stroke-dasharray:none;stroke-opacity:1"
             id="path110" /></g><g
           id="g112"
           transform="translate(338.0039,548.5953)"><path
             d="m 0,0 c 1.575,0.562 1.249,5.275 0.837,11.227 -0.012,0.178 -0.35,2.747 -1.003,7.88 -0.198,1.55 -0.406,3.136 -1.125,4.523 -0.498,0.962 -1.23,1.8 -1.631,2.806 -0.957,2.396 -1.007,5.139 -2.991,6.787 -0.997,0.828 -1.551,1.477 -2.333,2.511 -0.629,0.83 -1.136,0.906 -1.724,1.609 -0.668,0.8 -2.218,3.131 -1.763,1.781 -0.107,1.66 -1.705,2.765 -3.137,3.611 -1.779,1.051 -3.562,2.105 -5.442,2.963 -1.555,0.71 -3.172,1.284 -4.828,1.713 -3.938,1.021 -8.048,1.213 -12.116,1.128 -6.191,-0.129 -12.35,-0.885 -18.496,-1.641 -0.901,-0.11 -1.919,-0.292 -2.408,-1.056 -0.338,-0.528 -0.356,-1.257 -0.827,-1.67 -0.85,-0.746 -2.314,0.172 -3.276,-0.422 -0.592,-0.367 -0.745,-1.156 -1.194,-1.689 -0.403,-0.479 -1.015,-0.719 -1.592,-0.96 -5.072,-2.124 -9.444,-5.883 -12.304,-10.579 -0.782,-1.284 -1.454,-2.635 -2.269,-3.898 -0.804,-1.249 -1.744,-2.406 -2.531,-3.666 -2.107,-3.371 -3.047,-7.385 -3.137,-11.359 -0.055,-2.476 0.175,-5.096 -0.979,-7.287 -0.326,-0.618 -0.761,-1.198 -0.899,-1.883 -0.13,-0.64 0.014,-1.3 0.117,-1.945 0.714,-4.481 -0.698,-9.254 -3.734,-12.625 1.11,-1.843 0.979,-4.148 0.814,-6.294 -0.415,-5.386 -0.829,-10.772 -1.244,-16.159 1.057,-2.385 1.294,-5.126 0.66,-7.657 1.137,-0.37 2.274,-0.74 3.411,-1.11 -0.395,-1.033 0.362,-2.195 1.326,-2.737 0.964,-0.543 2.098,-0.669 3.154,-0.999 1.332,-0.416 2.557,-1.171 3.527,-2.174 0.474,-0.49 0.909,-1.055 1.528,-1.343 0.471,-0.219 1.004,-0.256 1.522,-0.302 3.581,-0.32 7.104,-1.284 10.35,-2.83 0.66,-0.315 1.32,-0.656 2.039,-0.786 0.721,-0.718 3.938,-3.765 8.728,-3.702 2.249,0.029 4.015,0.733 5.071,1.267 -1.235,3.842 -1.386,6.937 -1.268,9.127 0.12,2.225 1.875,5.84 0.831,7.021 -1.072,1.211 -3.505,0.536 -5.757,0.61 0,0 -5.057,0.033 -10.793,2.897 -1.29,0.644 -4.298,1.641 -6.919,6.06 -2.251,3.795 -3.645,9.683 -1.52,14.658 0.638,1.495 0.497,2.572 0.538,4.576 0.036,1.756 0.413,3.727 -2.019,7.179 -2.141,3.038 -2.19,4.847 -1.895,6.689 0.512,3.205 2.181,4.709 2.81,6.085 0.716,1.566 1.79,2.5 3.409,5.169 2.332,3.846 2.007,3.206 3.147,5.003 0.896,1.414 2.319,4.263 2.96,7.574 0.621,3.207 0.352,3.144 1.825,4.373 1.346,1.125 0.507,1.026 2.815,1.723 2.617,0.791 4.021,0.942 5.758,0.967 1.126,0.017 2.82,-0.153 7.799,-0.893 7.803,-1.161 8.058,-1.532 11.784,-1.856 2.478,-0.216 2.662,-0.328 5.128,-0.638 0.589,-0.074 2.181,-2.103 3.043,-2.916 0.514,-0.483 0.328,-0.929 0.659,-2.77 0.35,-1.954 0.383,-4.934 0.441,-6.543 0.071,-1.987 1.067,-3.189 1.67,-5.647 0.2,-0.816 0.768,-0.681 2.171,-4.847 1.599,-4.752 2.048,-7.025 2.171,-9.292 0.2,-3.673 0.075,-1.533 0.104,-2.515 0.049,-1.668 0.343,-2.381 1.102,-3.859 0.181,-0.353 2.012,-1.937 3.216,-1.962 0.96,-0.02 4.224,1.511 5.315,2.766 1.362,1.569 2.13,3.568 3.521,4.415 2.12,1.29 1.366,1.278 2.986,2.198 1.844,1.047 1.149,0.482 2.319,1.032 C -0.652,0.31 -0.788,-0.282 0,0"
             style="fill:#231f20;fill-opacity:1;fill-rule:nonzero;stroke:none"
             id="path114" /></g><g
           id="g116"
           transform="translate(338.0039,548.5953)"><path
             d="m 0,0 c 1.575,0.562 1.249,5.275 0.837,11.227 -0.012,0.178 -0.35,2.747 -1.003,7.88 -0.198,1.55 -0.406,3.136 -1.125,4.523 -0.498,0.962 -1.23,1.8 -1.631,2.806 -0.957,2.396 -1.007,5.139 -2.991,6.787 -0.997,0.828 -1.551,1.477 -2.333,2.511 -0.629,0.83 -1.136,0.906 -1.724,1.609 -0.668,0.8 -2.218,3.131 -1.763,1.781 -0.107,1.66 -1.705,2.765 -3.137,3.611 -1.779,1.051 -3.562,2.105 -5.442,2.963 -1.555,0.71 -3.172,1.284 -4.828,1.713 -3.938,1.021 -8.048,1.213 -12.116,1.128 -6.191,-0.129 -12.35,-0.885 -18.496,-1.641 -0.901,-0.11 -1.919,-0.292 -2.408,-1.056 -0.338,-0.528 -0.356,-1.257 -0.827,-1.67 -0.85,-0.746 -2.314,0.172 -3.276,-0.422 -0.592,-0.367 -0.745,-1.156 -1.194,-1.689 -0.403,-0.479 -1.015,-0.719 -1.592,-0.96 -5.072,-2.124 -9.444,-5.883 -12.304,-10.579 -0.782,-1.284 -1.454,-2.635 -2.269,-3.898 -0.804,-1.249 -1.744,-2.406 -2.531,-3.666 -2.107,-3.371 -3.047,-7.385 -3.137,-11.359 -0.055,-2.476 0.175,-5.096 -0.979,-7.287 -0.326,-0.618 -0.761,-1.198 -0.899,-1.883 -0.13,-0.64 0.014,-1.3 0.117,-1.945 0.714,-4.481 -0.698,-9.254 -3.734,-12.625 1.11,-1.843 0.979,-4.148 0.814,-6.294 -0.415,-5.386 -0.829,-10.772 -1.244,-16.159 1.057,-2.385 1.294,-5.126 0.66,-7.657 1.137,-0.37 2.274,-0.74 3.411,-1.11 -0.395,-1.033 0.362,-2.195 1.326,-2.737 0.964,-0.543 2.098,-0.669 3.154,-0.999 1.332,-0.416 2.557,-1.171 3.527,-2.174 0.474,-0.49 0.909,-1.055 1.528,-1.343 0.471,-0.219 1.004,-0.256 1.522,-0.302 3.581,-0.32 7.104,-1.284 10.35,-2.83 0.66,-0.315 1.32,-0.656 2.039,-0.786 0.721,-0.718 3.938,-3.765 8.728,-3.702 2.249,0.029 4.015,0.733 5.071,1.267 -1.235,3.842 -1.386,6.937 -1.268,9.127 0.12,2.225 1.875,5.84 0.831,7.021 -1.072,1.211 -3.505,0.536 -5.757,0.61 0,0 -5.057,0.033 -10.793,2.897 -1.29,0.644 -4.298,1.641 -6.919,6.06 -2.251,3.795 -3.645,9.683 -1.52,14.658 0.638,1.495 0.497,2.572 0.538,4.576 0.036,1.756 0.413,3.727 -2.019,7.179 -2.141,3.038 -2.19,4.847 -1.895,6.689 0.512,3.205 2.181,4.709 2.81,6.085 0.716,1.566 1.79,2.5 3.409,5.169 2.332,3.846 2.007,3.206 3.147,5.003 0.896,1.414 2.319,4.263 2.96,7.574 0.621,3.207 0.352,3.144 1.825,4.373 1.346,1.125 0.507,1.026 2.815,1.723 2.617,0.791 4.021,0.942 5.758,0.967 1.126,0.017 2.82,-0.153 7.799,-0.893 7.803,-1.161 8.058,-1.532 11.784,-1.856 2.478,-0.216 2.662,-0.328 5.128,-0.638 0.589,-0.074 2.181,-2.103 3.043,-2.916 0.514,-0.483 0.328,-0.929 0.659,-2.77 0.35,-1.954 0.383,-4.934 0.441,-6.543 0.071,-1.987 1.067,-3.189 1.67,-5.647 0.2,-0.816 0.768,-0.681 2.171,-4.847 1.599,-4.752 2.048,-7.025 2.171,-9.292 0.2,-3.673 0.075,-1.533 0.104,-2.515 0.049,-1.668 0.343,-2.381 1.102,-3.859 0.181,-0.353 2.012,-1.937 3.216,-1.962 0.96,-0.02 4.224,1.511 5.315,2.766 1.362,1.569 2.13,3.568 3.521,4.415 2.12,1.29 1.366,1.278 2.986,2.198 1.844,1.047 1.149,0.482 2.319,1.032 C -0.652,0.31 -0.788,-0.282 0,0 Z"
             style="fill:none;stroke:#231f20;stroke-width:0.25;stroke-linecap:butt;stroke-linejoin:miter;stroke-miterlimit:10;stroke-dasharray:none;stroke-opacity:1"
             id="path118" /></g><g
           id="g120"
           transform="translate(299.0605,565.6002)"><path
             d="m 0,0 c -0.672,0.195 -1.364,0.218 -2.051,0.198 -2.845,-0.079 -5.653,-0.87 -8.443,-1.657 -0.231,0.989 0.258,2.081 0.913,2.574 0.656,0.493 1.431,0.535 2.175,0.566 0.99,0.041 1.979,0.081 2.969,0.122 0.913,0.038 1.835,0.075 2.733,-0.16 1.24,-0.324 2.379,-1.15 3.497,-1.965 0.618,-0.451 1.251,-0.917 1.718,-1.642 0.41,-0.64 0.713,-1.587 0.529,-2.438 C 2.989,-2.314 1.908,-0.553 0,0"
             style="fill:#231f20;fill-opacity:1;fill-rule:nonzero;stroke:none"
             id="path122" /></g><g
           id="g124"
           transform="translate(299.0605,565.6002)"><path
             d="m 0,0 c -0.672,0.195 -1.364,0.218 -2.051,0.198 -2.845,-0.079 -5.653,-0.87 -8.443,-1.657 -0.231,0.989 0.258,2.081 0.913,2.574 0.656,0.493 1.431,0.535 2.175,0.566 0.99,0.041 1.979,0.081 2.969,0.122 0.913,0.038 1.835,0.075 2.733,-0.16 1.24,-0.324 2.379,-1.15 3.497,-1.965 0.618,-0.451 1.251,-0.917 1.718,-1.642 0.41,-0.64 0.713,-1.587 0.529,-2.438 C 2.989,-2.314 1.908,-0.553 0,0 Z"
             style="fill:none;stroke:#231f20;stroke-width:0.25;stroke-linecap:butt;stroke-linejoin:miter;stroke-miterlimit:10;stroke-dasharray:none;stroke-opacity:1"
             id="path126" /></g><g
           id="g128"
           transform="translate(271.6436,568.0236)"><path
             d="M 0,0 C 0.527,0.121 1.062,0.108 1.59,0.062 3.779,-0.127 5.907,-0.867 8.021,-1.604 8.244,-0.846 7.917,0.024 7.434,0.437 6.951,0.85 6.355,0.917 5.784,0.974 L 3.501,1.203 C 2.799,1.272 2.091,1.343 1.388,1.201 0.418,1.004 -0.497,0.414 -1.396,-0.17 -1.893,-0.493 -2.401,-0.827 -2.793,-1.369 -3.139,-1.847 -3.415,-2.57 -3.312,-3.239 -2.408,-1.665 -1.495,-0.344 0,0"
             style="fill:#231f20;fill-opacity:1;fill-rule:nonzero;stroke:none"
             id="path130" /></g><g
           id="g132"
           transform="translate(271.6436,568.0236)"><path
             d="M 0,0 C 0.527,0.121 1.062,0.108 1.59,0.062 3.779,-0.127 5.907,-0.867 8.021,-1.604 8.244,-0.846 7.917,0.024 7.434,0.437 6.951,0.85 6.355,0.917 5.784,0.974 L 3.501,1.203 C 2.799,1.272 2.091,1.343 1.388,1.201 0.418,1.004 -0.497,0.414 -1.396,-0.17 -1.893,-0.493 -2.401,-0.827 -2.793,-1.369 -3.139,-1.847 -3.415,-2.57 -3.312,-3.239 -2.408,-1.665 -1.495,-0.344 0,0 Z"
             style="fill:none;stroke:#231f20;stroke-width:0.25;stroke-linecap:butt;stroke-linejoin:miter;stroke-miterlimit:10;stroke-dasharray:none;stroke-opacity:1"
             id="path134" /></g><g
           id="g136"
           transform="translate(326.832,508.5573)"><path
             d="m 0,0 c 9.596,-6.8 20.809,-12.387 28.395,-21.375 4.612,-5.464 8.795,-11.991 10.816,-18.851 2.386,-8.095 1.896,-15.728 4.057,-23.887 -11.956,-3.07 -20.232,-4.393 -32.527,-5.503 -0.75,-0.068 0.6,-0.457 0,0 -0.571,0.436 -0.762,1.199 -0.916,1.902 -1.304,5.958 -2.608,11.917 -3.913,17.875 7.776,-22.334 9.136,-46.541 7.947,-70.161 -0.052,-1.053 -2.583,-2.275 -3.188,-3.139 -0.461,-0.658 -1.176,-1.085 -1.868,-1.492 -10.104,-5.946 -20.805,-12.066 -32.527,-12.241 -9.96,-0.147 -19.411,4.038 -28.488,8.14 -4.023,1.818 -8.197,3.75 -10.978,7.179 -4.383,5.404 -4.242,13.149 -2.971,19.99 1.271,6.842 3.458,13.739 2.405,20.617 -1.006,6.566 -4.879,12.386 -6.183,18.9 -1.455,7.257 0.422,14.865 3.791,21.456 3.368,6.59 8.154,12.332 12.899,18.013 -1.474,-4.092 -4.862,-7.131 -7.628,-10.487 -8.601,-10.433 -10.089,-25.426 -5.911,-38.284 -6.227,2.448 -13.641,5.376 -19.509,8.59 -0.52,0.285 -1.065,0.598 -1.354,1.116 -0.325,0.583 -0.257,1.296 -0.18,1.959 0.342,2.939 0.685,5.879 1.026,8.818 1.224,10.517 2.57,21.402 8.051,30.462 3.088,5.103 8.124,9.745 14.089,9.664 4.425,-0.06 8.18,-1.225 12.14,-3.2 3.961,-1.976 9.061,-4.761 12.807,-2.404 -2.241,4.929 1.123,11.23 0.697,15.164 0.335,-2.974 0.756,-8.016 1.092,-12.023 0.251,-2.983 3.718,-5.048 6.688,-5.418 2.474,-0.308 4.888,0.761 7.153,1.804 2.953,1.36 7.23,3.33 10.183,4.69 1.323,0.61 2.619,2.892 3.965,3.451 C -3.718,-6.084 -2.282,1.618 0,0"
             style="fill:#221915;fill-opacity:1;fill-rule:nonzero;stroke:none"
             id="path138" /></g><g
           id="g140"
           transform="translate(326.832,508.5573)"><path
             d="m 0,0 c 9.596,-6.8 20.809,-12.387 28.395,-21.375 4.612,-5.464 8.795,-11.991 10.816,-18.851 2.386,-8.095 1.896,-15.728 4.057,-23.887 -11.956,-3.07 -20.232,-4.393 -32.527,-5.503 -0.75,-0.068 0.6,-0.457 0,0 -0.571,0.436 -0.762,1.199 -0.916,1.902 -1.304,5.958 -2.608,11.917 -3.913,17.875 7.776,-22.334 9.136,-46.541 7.947,-70.161 -0.052,-1.053 -2.583,-2.275 -3.188,-3.139 -0.461,-0.658 -1.176,-1.085 -1.868,-1.492 -10.104,-5.946 -20.805,-12.066 -32.527,-12.241 -9.96,-0.147 -19.411,4.038 -28.488,8.14 -4.023,1.818 -8.197,3.75 -10.978,7.179 -4.383,5.404 -4.242,13.149 -2.971,19.99 1.271,6.842 3.458,13.739 2.405,20.617 -1.006,6.566 -4.879,12.386 -6.183,18.9 -1.455,7.257 0.422,14.865 3.791,21.456 3.368,6.59 8.154,12.332 12.899,18.013 -1.474,-4.092 -4.862,-7.131 -7.628,-10.487 -8.601,-10.433 -10.089,-25.426 -5.911,-38.284 -6.227,2.448 -13.641,5.376 -19.509,8.59 -0.52,0.285 -1.065,0.598 -1.354,1.116 -0.325,0.583 -0.257,1.296 -0.18,1.959 0.342,2.939 0.685,5.879 1.026,8.818 1.224,10.517 2.57,21.402 8.051,30.462 3.088,5.103 8.124,9.745 14.089,9.664 4.425,-0.06 8.18,-1.225 12.14,-3.2 3.961,-1.976 9.061,-4.761 12.807,-2.404 -2.241,4.929 1.123,11.23 0.697,15.164 0.335,-2.974 0.756,-8.016 1.092,-12.023 0.251,-2.983 3.718,-5.048 6.688,-5.418 2.474,-0.308 4.888,0.761 7.153,1.804 2.953,1.36 7.23,3.33 10.183,4.69 1.323,0.61 2.619,2.892 3.965,3.451 C -3.718,-6.084 -2.282,1.618 0,0 Z"
             style="fill:none;stroke:#221915;stroke-width:0.25;stroke-linecap:butt;stroke-linejoin:miter;stroke-miterlimit:10;stroke-dasharray:none;stroke-opacity:1"
             id="path142" /></g><path
           d="m 332.915,524.363 h 6.266 v 9.788 h -6.266 z"
           style="fill:#fff687;fill-opacity:1;fill-rule:nonzero;stroke:none"
           id="path144" /><g
           id="g146"
           transform="translate(173.2817,441.6642)"><path
             d="m 0,0 c -10.464,-8.166 -12.275,-19.901 -7.192,-29.967 -7.577,1.917 -16.597,4.209 -23.738,6.725"
             style="fill:#221915;fill-opacity:1;fill-rule:nonzero;stroke:none"
             id="path148" /></g><g
           id="g150"
           transform="translate(242.1704,444.7711)"><path
             d="m 0,0 c 1.637,-6.218 3.828,-12.243 0.724,-15.917 -2.399,-2.839 -5.752,-0.814 -13.642,-0.807 -5.414,0.005 -4.952,-0.947 -20.543,-4.007 -11.142,-2.187 -16.713,-3.281 -18.771,-2.672 -7.402,2.189 -12.32,8.543 -18.771,7.124 -0.903,-0.198 -4.465,-0.981 -4.605,-2.671 -0.044,-0.534 0.723,-0.894 0.62,-1.447 -0.132,-0.711 -1.392,-0.643 -1.505,-1.336 -0.095,-0.581 0.729,-1.004 0.619,-1.559 -0.116,-0.59 -1.108,-0.403 -1.416,-1.113 -0.368,-0.848 0.623,-2.105 0.443,-2.338 -0.433,-0.556 -6.06,6.748 -7.881,5.344 -0.304,-0.235 -0.501,-0.704 -0.531,-1.113 -0.084,-1.124 1.184,-2.07 2.125,-2.783 6.387,-4.843 6.224,-4.941 7.172,-5.232 2.855,-0.877 4.374,-0.005 4.781,-1.113 0.49,-1.332 -1.238,-4.654 -2.479,-4.119 -0.771,0.333 -1.471,1.347 -2.391,1.248 -0.457,-0.051 -1.732,0.257 -1.742,-0.191 -0.028,-1.186 2.994,-3.579 4.399,-3.84 2.175,-0.405 3.964,1.427 5.047,2.337 1.935,1.627 5.36,2.035 12.13,2.784 9.807,1.084 15.379,1.7 23.287,1.002 9.6,-0.848 8.881,-2.408 19.48,-3.34 13.468,-1.185 17.755,1.044 19.923,2.449 5.142,3.331 8.237,8.425 9.385,10.352 3.019,5.072 1.217,12.178 1.873,15.288 z"
             style="fill:#5a1c0b;fill-opacity:1;fill-rule:nonzero;stroke:none"
             id="path152" /></g><g
           id="g154"
           transform="translate(365.7842,443.2404)"><path
             d="m 0,0 c -0.828,-7.027 -0.652,-9.989 -0.802,-15.962 -0.414,-16.636 2.361,-18.348 0.254,-23.324 -2.098,-4.956 -5.805,-5.502 -33.465,-18 -14.535,-6.568 -16.059,-7.569 -18,-9.634 -2.499,-2.66 -6.567,-8.196 -14.704,-19.268 -1.632,-2.221 -3.894,-5.315 -5.324,-4.817 -1.076,0.376 -0.647,1.033 -0.169,2.874 0.852,3.276 5.733,6.597 5.155,7.099 -1.457,1.263 -8.96,-5.722 -9.802,-6.93 -0.624,-0.894 -2.637,0.721 -2.367,1.943 0.475,2.156 4.092,3.382 5.662,6.169 1.04,1.846 2.854,3.502 2.313,3.74 -0.719,0.317 -3.843,-2.491 -7.89,-5.007 -0.42,-0.261 -3.446,-2.114 -4.31,-1.268 -0.522,0.512 -0.636,1.155 -0.255,2.058 0.045,0.107 0.316,0.897 0.327,0.918 0.125,0.254 0.28,0.516 1.132,1.144 0.005,0.004 1.531,0.839 1.584,0.867 1.253,0.624 1.253,0.624 2.029,0.844 1.442,0.41 5.073,4.628 4.817,5.061 -0.568,0.956 -9.609,-4.3 -12.677,-4.3 -0.675,0 -1.58,1.737 -1.013,2.535 0.465,0.656 1.93,1.073 4.309,1.521 2.437,0.459 3.299,0.99 4.437,1.806 1.092,0.784 2.071,1.455 2.408,1.997 0.685,1.096 1.155,1.849 1.015,2.788 -0.181,1.207 -0.977,1.457 -2.198,1.606 -1.508,0.186 -2.269,-0.421 -4.648,-1.099 -0.146,-0.041 -3.399,-0.165 -4.371,1.258 -0.678,0.992 2.802,1.633 3.949,2.546 0.96,0.764 -0.75,0.031 3.211,0.76 2.93,0.539 4.485,-0.23 5.578,0 2.367,0.499 2.488,1.284 4.816,1.521 1.324,0.135 1.661,-0.08 4.057,0 0,0 1.738,0.059 3.296,0.254 2.983,0.374 5.771,2.985 11.155,8.366 5.081,5.08 5.458,5.614 7.351,7.099 3.1,2.431 3.176,1.852 6.846,4.563 5.716,4.223 5.711,5.76 9.634,7.606 3.523,1.657 4.753,0.993 5.831,2.535 1.412,2.02 0.331,4.634 -1.522,10.901 -0.778,2.633 -3.014,8.02 -3.635,12.992 z"
             style="fill:#5a1c0b;fill-opacity:1;fill-rule:nonzero;stroke:none"
             id="path156" /></g><g
           id="g158"
           transform="translate(294.4331,555.2892)"><path
             d="m 0,0 c -0.244,0.064 -0.596,-0.251 -0.555,-0.412 0.021,-0.079 0.122,-0.063 0.333,-0.19 0.123,-0.074 0.382,-0.229 0.444,-0.475 0.05,-0.2 -0.069,-0.297 0,-0.381 0.13,-0.157 0.711,0.004 0.744,0.222 0.009,0.057 -0.024,0.088 -0.253,0.365 C 0.53,-0.65 0.438,-0.54 0.364,-0.443 0.104,-0.105 0.107,-0.028 0,0"
             style="fill:#ffffff;fill-opacity:1;fill-rule:nonzero;stroke:none"
             id="path160" /></g><g
           id="g162"
           transform="translate(291.2246,553.7687)"><path
             d="M 0,0 -0.459,-0.091 0,-1.22 Z"
             style="fill:#ffffff;fill-opacity:1;fill-rule:nonzero;stroke:none"
             id="path164" /></g><g
           id="g166"
           transform="translate(270.5864,558.9977)"><path
             d="M 0,0 C 0.215,0.13 0.643,-0.073 0.648,-0.239 0.651,-0.321 0.549,-0.334 0.382,-0.515 0.285,-0.621 0.081,-0.842 0.091,-1.096 0.098,-1.302 0.24,-1.362 0.198,-1.461 c -0.08,-0.187 -0.684,-0.198 -0.777,0.003 -0.025,0.052 -0.002,0.091 0.141,0.421 0.112,0.264 0.169,0.395 0.213,0.509 C -0.07,-0.13 -0.095,-0.057 0,0"
             style="fill:#ffffff;fill-opacity:1;fill-rule:nonzero;stroke:none"
             id="path168" /></g><g
           id="g170"
           transform="translate(266.9277,559.7457)"><path
             d="m 0,0 0.397,-0.249 -0.833,-0.89 z"
             style="fill:#ffffff;fill-opacity:1;fill-rule:nonzero;stroke:none"
             id="path172" /></g><g
           id="g174"
           transform="translate(340.7539,388.171)"><path
             d="m 0,0 c 0.837,0.145 2.073,-2.878 3.008,-5.323 0.969,-2.532 0.475,-3.304 0.277,-3.972 -0.22,-0.736 -0.883,-1.667 -1.193,-1.734 -3.959,-0.863 -9.341,-1.757 -9.932,-1.832 -4.305,-0.55 -5.769,-0.759 -8.969,-0.944 -1.826,-0.106 -2.789,-0.226 -4.776,-0.194 -0.421,0.007 -2.538,-0.105 -2.562,-0.022 -0.026,0.091 2.218,1 3.608,1.562 0,0 1.487,0.684 2.969,1.347 1.082,0.483 1.174,0.647 2.861,1.466 2.959,1.434 2.936,1.548 4.349,2.324 1.216,0.668 1.365,0.951 3.029,1.935 1.904,1.127 2.896,1.187 3.836,2.256 0.39,0.443 0.664,0.653 1.309,1.275 0.659,0.632 0.613,0.587 1.398,1.145 C 0.107,-0.076 -0.296,-0.051 0,0"
             style="fill:#002e2b;fill-opacity:1;fill-rule:nonzero;stroke:none"
             id="path176" /></g></g></g></g></svg>
