<?xml version="1.0" encoding="utf-8"?>
<!-- Generator: Adobe Illustrator 24.2.0, SVG Export Plug-In . SVG Version: 6.00 Build 0)  -->
<svg version="1.1" id="Layer_1" xmlns="http://www.w3.org/2000/svg" xmlns:xlink="http://www.w3.org/1999/xlink" x="0px" y="0px"
	 viewBox="0 0 595.28 841.89" style="enable-background:new 0 0 595.28 841.89;" xml:space="preserve">
<style type="text/css">
	.st0{fill:#D5D7EC;}
	.st1{fill:#5D0000;}
	.st2{fill:#EFEA43;}
	.st3{fill:#FFFFFF;stroke:#000000;stroke-miterlimit:10;}
	.st4{fill:#FFFFFF;stroke:#FFFFFF;stroke-miterlimit:10;}
	.st5{fill:#69270C;}
	.st6{fill:#5D0000;stroke:#000000;stroke-miterlimit:10;}
	.st7{fill:#520000;}
	.st8{fill:none;stroke:#8A221B;stroke-miterlimit:10;}
	.st9{fill:#8A221B;}
	.st10{fill:none;stroke:#000000;stroke-miterlimit:10;}
</style>
<rect x="43.5" y="29.5" transform="matrix(0.9993 0.0379 -0.0379 0.9993 11.5107 -10.5434)" class="st0" width="481" height="538"/>
<circle class="st1" cx="450.5" cy="368.38" r="5.38"/>
<circle class="st1" cx="486.25" cy="60.75" r="11.75"/>
<circle class="st1" cx="448" cy="123" r="11"/>
<circle class="st1" cx="520" cy="147" r="13"/>
<circle class="st1" cx="459" cy="185.25" r="13.25"/>
<circle class="st1" cx="492.5" cy="117.5" r="5.5"/>
<circle class="st1" cx="467.88" cy="103.63" r="6.63"/>
<circle class="st1" cx="516.38" cy="59.81" r="7"/>
<circle class="st1" cx="508.75" cy="83.25" r="6.25"/>
<circle class="st1" cx="455.88" cy="77.88" r="5.38"/>
<circle class="st1" cx="480.75" cy="89.5" r="6.25"/>
<circle class="st1" cx="494.38" cy="173.13" r="8.13"/>
<circle class="st1" cx="418" cy="139.31" r="7.75"/>
<circle class="st1" cx="434.25" cy="96.13" r="8.13"/>
<circle class="st1" cx="406.41" cy="65.97" r="17"/>
<circle class="st1" cx="491.12" cy="200.62" r="10.37"/>
<circle class="st1" cx="520.5" cy="220.5" r="8.5"/>
<circle class="st1" cx="489" cy="249.63" r="5.38"/>
<circle class="st1" cx="439.69" cy="147.06" r="4.06"/>
<path class="st2" d="M395.18,316.02c0,33.89,11.32,61.36,25.28,61.36s19.22-27.08,19.22-60.97s-5.26-61.75-19.22-61.75
	S395.18,282.13,395.18,316.02z"/>
<circle class="st1" cx="563" cy="185.25" r="11.5"/>
<circle class="st1" cx="486.25" cy="286.75" r="11.75"/>
<circle class="st1" cx="555.56" cy="147" r="12.44"/>
<circle class="st1" cx="529" cy="303" r="9"/>
<circle class="st1" cx="532.75" cy="261.25" r="12.25"/>
<circle class="st1" cx="294.55" cy="65.97" r="10.38"/>
<circle class="st1" cx="369.22" cy="60.16" r="9.5"/>
<circle class="st1" cx="340.45" cy="65.97" r="5.81"/>
<circle class="st1" cx="480.75" cy="226.75" r="6.25"/>
<circle class="st1" cx="452.38" cy="280.13" r="6.63"/>
<circle class="st1" cx="505.78" cy="341.66" r="6.22"/>
<circle class="st1" cx="529" cy="340.61" r="8.11"/>
<circle class="st1" cx="293.92" cy="101.13" r="8.33"/>
<circle class="st3" cx="362.06" cy="199.94" r="26.81"/>
<circle class="st4" cx="227.31" cy="200.44" r="23.44"/>
<circle class="st1" cx="165.63" cy="103.63" r="9.5"/>
<circle class="st1" cx="144.09" cy="90.38" r="11.75"/>
<circle class="st1" cx="116.56" cy="110.25" r="11.25"/>
<circle class="st1" cx="97.13" cy="52.81" r="15.5"/>
<circle class="st1" cx="75.63" cy="95.75" r="21.63"/>
<circle class="st1" cx="93.06" cy="145.75" r="13.59"/>
<circle class="st1" cx="157.38" cy="184.63" r="10.88"/>
<circle class="st1" cx="57" cy="138" r="13.88"/>
<circle class="st1" cx="180.68" cy="121.56" r="6.63"/>
<circle class="st1" cx="182.95" cy="62.56" r="17"/>
<circle class="st3" cx="284" cy="328.16" r="13.5"/>
<circle class="st1" cx="381.5" cy="86.63" r="6.63"/>
<circle class="st1" cx="86.5" cy="173.75" r="10.88"/>
<circle class="st1" cx="130" cy="230.25" r="5.38"/>
<circle class="st1" cx="509.25" cy="273" r="5.38"/>
<circle class="st1" cx="118.75" cy="147" r="5.38"/>
<circle class="st1" cx="132.34" cy="162.88" r="5.38"/>
<circle class="st1" cx="121.94" cy="78.31" r="5.38"/>
<circle class="st1" cx="487" cy="138" r="5.38"/>
<circle class="st1" cx="538" cy="103.88" r="21.63"/>
<circle class="st1" cx="212.21" cy="85" r="5.81"/>
<path class="st2" d="M157.38,303c0,33.14,2.6,61.66,15.56,61.66s23.47-26.86,23.47-60s-10.51-60-23.47-60S157.38,269.86,157.38,303z
	"/>
<circle class="st1" cx="111.63" cy="215.36" r="10.88"/>
<circle class="st1" cx="114.99" cy="184.52" r="7"/>
<circle class="st1" cx="118.75" cy="261.25" r="11.75"/>
<circle class="st1" cx="52.59" cy="185.25" r="13.25"/>
<circle class="st1" cx="92" cy="254.66" r="5.38"/>
<circle class="st1" cx="135.38" cy="130.88" r="5.38"/>
<circle class="st1" cx="559.63" cy="224.88" r="21.63"/>
<circle class="st1" cx="459" cy="153.5" r="5.38"/>
<circle class="st1" cx="157.38" cy="163.58" r="5.38"/>
<circle class="st1" cx="266.72" cy="71.34" r="5.38"/>
<circle class="st1" cx="319.81" cy="68.81" r="5.38"/>
<circle class="st1" cx="474.5" cy="255.38" r="5.38"/>
<circle class="st1" cx="499.75" cy="314.66" r="5.38"/>
<circle class="st1" cx="113.25" cy="289.75" r="5.38"/>
<path class="st5" d="M418,193c9.75,6.66,16.81,0.45,25,7c20.29,16.21,2.18,74.34-5,74c-3.59-0.17-3.13-14.9-11-17
	c-7.18-1.91-15.56,8.2-17,10c-11.42,14.21-6.61,28.16-10,45c-7.38,36.64-47.48,56.73-54,60c-4.78,2.4-28.24,13.7-60,11
	c-11.27-0.96-35.83-3.05-57-21c-16.35-13.86-30.12-36.7-33-61c-1.51-12.72,0.27-23.29-7-38c-1.79-3.63-10.13-20.48-19-19
	c-7.15,1.19-7.16,16-11,16c-6.65,0-19.63-44.17-2.88-58.88c5.33-4.68,9.68-2.87,15.88-7.13c13.2-9.07,7.34-28.07,12-48
	c5.56-23.76,25.64-51.21,47-54c25.53-3.34,37.08,30.61,66,30c22.95-0.48,24.69-29.87,47-32c21.6-2.07,45.92,20.57,56,43
	C411.98,159.65,402.13,182.16,418,193z"/>
<circle class="st6" cx="406.41" cy="110.25" r="4.06"/>
<circle class="st6" cx="406.41" cy="110.25" r="4.06"/>
<circle class="st1" cx="272.19" cy="104.25" r="4.06"/>
<circle class="st1" cx="135.38" cy="201.13" r="4.06"/>
<circle class="st1" cx="294.55" cy="85" r="4.06"/>
<circle class="st1" cx="325.18" cy="90.38" r="5.38"/>
<circle class="st1" cx="512" cy="243" r="7.75"/>
<circle class="st1" cx="330.56" cy="46.36" r="4.06"/>
<circle class="st1" cx="294.55" cy="116.8" r="4.06"/>
<circle class="st1" cx="314.43" cy="103.63" r="4.06"/>
<circle class="st1" cx="78.63" cy="294" r="8.5"/>
<circle class="st1" cx="124.63" cy="316.41" r="11.75"/>
<circle class="st1" cx="489" cy="363" r="5.38"/>
<circle class="st1" cx="479.88" cy="382.11" r="5.38"/>
<circle class="st1" cx="261.34" cy="93.25" r="5.38"/>
<circle class="st1" cx="94.38" cy="232.58" r="4.06"/>
<circle class="st1" cx="346.26" cy="82.81" r="4.06"/>
<path class="st7" d="M324,200c5.24,12.82,17.4,21.45,31,22c14.6,0.59,28.23-8.24,33.88-22.06"/>
<path class="st7" d="M204.91,201.02c5.24,12.82,17.4,21.45,31,22c14.6,0.59,28.23-8.24,33.88-22.06"/>
<circle class="st1" cx="315.53" cy="51.81" r="4.06"/>
<circle class="st1" cx="146.5" cy="273.5" r="5.38"/>
<circle class="st1" cx="149.47" cy="316.41" r="5.38"/>
<circle class="st1" cx="148.69" cy="357.63" r="5.38"/>
<circle class="st1" cx="57" cy="224.88" r="21.63"/>
<path class="st1" d="M342,167.78c7.45-0.23,15.07-0.27,22.13,2.09c10.05,3.36,18.47,11.37,28.99,12.67
	c-7.58-4.23-15.16-8.45-22.74-12.68c-9.25-5.16-18.69-10.38-29.07-12.51c-4.85-0.99-21.52-1.05-20.91,7.8
	C320.84,171.63,337.19,167.93,342,167.78z"/>
<path class="st8" d="M294.55,310.39"/>
<path class="st9" d="M264.3,311.98c-0.75,5.84,11.68,12.96,17.24,15.55c4.36,2.04,20.08,9.38,36.85,0.63
	c12.73-6.64,23.96-21.47,21.8-27.11c-1.99-5.21-16.55-5.69-25.18,0.63c-1.48,1.08-3.81,3.12-7.61,4.41
	c-1.15,0.39-5.16,1.65-10.48,0.84c-3.6-0.55-6.01-1.78-7.27-2.31C280.07,300.55,265.07,305.93,264.3,311.98z"/>
<path class="st9" d="M284.24,306c7.02-0.02,7.14,3.07,14.2,3.21c8.6,0.17,9.53-4.42,19.94-5.92c8.84-1.27,10.31,1.73,18.59,0
	c8.25-1.72,15.58-6.52,15.04-8.45c-0.51-1.86-7.81,0.9-20.62-1.01c-10.9-1.63-13.62-4.83-19.77-2.87
	c-5.89,1.87-6.31,5.72-11.49,6.08c-5.99,0.43-7.42-4.56-13.52-4.73c-5.95-0.16-7.13,4.51-15.38,8.11
	c-11.18,4.88-20.52,1.3-20.96,3.38c-0.4,1.93,7.21,7.01,15.72,6.93C274.02,310.65,275.67,306.03,284.24,306z"/>
<circle class="st1" cx="139.44" cy="294" r="5.38"/>
<circle class="st1" cx="459" cy="264.28" r="4.06"/>
<circle class="st1" cx="275.7" cy="52.81" r="4.06"/>
<circle class="st1" cx="243.51" cy="85.47" r="4.06"/>
<circle class="st1" cx="276.25" cy="82.81" r="4.06"/>
<circle class="st1" cx="520.5" cy="189.13" r="4.06"/>
<circle class="st1" cx="555.56" cy="286.28" r="4.06"/>
<circle class="st1" cx="143.31" cy="337.02" r="5.38"/>
<circle class="st1" cx="462.94" cy="352.25" r="5.38"/>
<circle class="st1" cx="464.38" cy="309.28" r="5.38"/>
<circle class="st1" cx="464.38" cy="335.44" r="5.38"/>
<circle class="st1" cx="97.13" cy="340.81" r="5.38"/>
<circle class="st1" cx="106.25" cy="366.38" r="5.38"/>
<circle class="st1" cx="292.13" cy="37.31" r="5.38"/>
<circle class="st1" cx="219.56" cy="57.19" r="9.5"/>
<circle class="st1" cx="263.16" cy="46.36" r="4.06"/>
<circle class="st1" cx="130.5" cy="57.19" r="5.38"/>
<circle class="st1" cx="65.84" cy="260.03" r="5.38"/>
<path class="st1" d="M246.28,165.34c-7.39-0.96-14.97-1.73-22.23-0.07c-10.33,2.36-19.49,9.52-30.08,9.78
	c7.96-3.47,15.91-6.93,23.87-10.4c9.71-4.23,19.61-8.51,30.15-9.61c4.92-0.51,21.52,1.05,20.05,9.8
	C266.96,171.24,251.05,165.96,246.28,165.34z"/>
<circle class="st1" cx="88.38" cy="312" r="5.38"/>
<circle class="st1" cx="97.38" cy="277.95" r="5.38"/>
<circle class="st1" cx="246.06" cy="63" r="5.81"/>
<circle class="st1" cx="310.37" cy="82.81" r="4.06"/>
<circle class="st1" cx="157.38" cy="68.81" r="5.38"/>
<circle class="st1" cx="169.69" cy="141.44" r="7.75"/>
<circle class="st6" cx="191.42" cy="103.88" r="4.06"/>
<circle class="st1" cx="97.13" cy="193.19" r="4.06"/>
<circle class="st1" cx="426.38" cy="176.99" r="10.88"/>
<circle class="st1" cx="418" cy="157.5" r="5.38"/>
<path d="M253.65,377.38c-6.78,4.31,1.75,29.18-4.56,47.44c-11.37,32.86-92.94,20.56-97.35,40.56
	c-3.48,15.76,42.77,43.16,87.21,54.76c51.54,13.45,95.33,3.64,119.66-2.03c44.91-10.47,99.07-28.55,97.35-41.58
	c-1.99-15.1-76.17-2.53-95.32-39.55c-12.91-24.96-3.95-57.51-15.21-63.51c-3.72-1.98,2.18,4.56-14.45,11.92
	c-12.07,5.34-19.75,6.14-31.18,6.97c-16.81,1.23-31.7-5.32-37.27-7.61C250.95,380.02,256.57,375.52,253.65,377.38z"/>
<path class="st10" d="M-173.1,418.24"/>
<path class="st7" d="M329.15,243.3c0.05,3.64,0.09,7.27,0.14,10.91c0.01,0.88,0.01,1.81-0.43,2.57c-0.47,0.81-1.35,1.28-2.18,1.7
	c-2.19,1.12-4.38,2.24-6.57,3.36c-6.49,3.32-13.16,6.69-20.41,7.54c-7.24,0.85-15.3-1.34-19.54-7.27"/>
<path class="st10" d="M174.11,619.66"/>
<path class="st10" d="M220.76,622.71"/>
<path class="st10" d="M263.47,492.57"/>
<path class="st5" d="M301.82,387.17"/>
<path class="st5" d="M254.31,376.7c-1.83,2.12,4.19,8.8,12.02,11.36c6.59,2.15,10.7,3.12,17.61,3.89c5.38,0.6,15.42,1.96,27.09-0.53
	c7.07-1.51,12.46-1.69,19.06-3.76c10.02-3.14,14.36-11.07,13.89-14.43c-0.11-0.77-8.08,2.58-17.35,5.3
	c-7.4,2.18-13.5,3.21-16.31,3.61c-2.08,0.3-10.92,1.59-25.01,0.17c-5.85-0.59-11.17-1.43-17.92-2.51
	C260.25,378.66,254.73,376.2,254.31,376.7z"/>
</svg>
